<svg xmlns="http://www.w3.org/2000/svg" viewBox="0 0 2664.95 153.74"><defs><style>.a{font-size:92.17px;}.a,.f,.o{fill:#231f20;}.a,.i,.o{font-family:TypoGroteskRounded-Light, Typo Grotesk Rounded;font-weight:300;}.b{letter-spacing:-0.22em;}.c,.k{font-family:TypoGroteskRounded, Typo Grotesk Rounded;font-weight:400;}.c{letter-spacing:0em;}.d{fill:#25a9e0;}.d,.g,.h,.q,.r{stroke:#231f20;}.d,.g,.h,.l,.n,.q,.r{stroke-miterlimit:10;}.d,.g,.l,.q{stroke-width:4px;}.e,.g{fill:#37b34a;}.h,.i,.m{fill:#fff;}.h,.n,.r{stroke-width:3px;}.i{font-size:94.96px;}.j{letter-spacing:-0.22em;}.l,.n,.q,.r{fill:none;}.l,.n{stroke:#fff;}.o{font-size:88px;}.p{letter-spacing:-0.22em;}</style></defs><title>ecoprints</title><text class="a" transform="translate(1175.86 105.81)">eco<tspan class="b" x="157.3" y="0"> </tspan><tspan class="c" x="173.02" y="0">prints</tspan></text><path class="d" d="M1203.14,425.44a71.71,71.71,0,0,1-2,16.75,68.7,68.7,0,0,1-3.47,10.71,72.52,72.52,0,0,1-132.87,2.49,71.52,71.52,0,0,1-5.28-16.67h0a72.29,72.29,0,0,1-.16-25.67c.32-1.86.71-3.71,1.18-5.52a71.24,71.24,0,0,1,3.6-10.55c.59-1.37,1.22-2.72,1.9-4a71.43,71.43,0,0,1,9.37-14.08,69.35,69.35,0,0,1,4.84-5.16q1.9-1.85,4-3.56a72.8,72.8,0,0,1,8.33-6l.1-.07,1.08-.65a68.21,68.21,0,0,1,8.52-4.34,72.3,72.3,0,0,1,28.46-5.8,72.36,72.36,0,0,1,48.64,18.67s.05,0,.07.07l.06.06a72.52,72.52,0,0,1,11.73,13.71,69.54,69.54,0,0,1,3.72,6.28,70.4,70.4,0,0,1,5.2,12.76c.27.9.51,1.74.73,2.57.16.62.28,1.19.41,1.75s.24,1,.36,1.57c0,.07,0,.14,0,.2.29,1.41.5,2.62.63,3.53a1,1,0,0,1,0,.2c0,.1,0,.19,0,.28s0,0,0,0c.07.5.12.88.15,1.16s.06.5.06.5A71.82,71.82,0,0,1,1203.14,425.44Z" transform="translate(-91.39 -345.86)"/><path class="e" d="M1141.86,429.59c3.56,15.46,5.94,30.31-4.51,43.5-7.33,9.26-18.12,16.13-32.71,10.85,7.23-2.05,6.22-3.37,10.6-8.06-7.64,4-15.51,6.17-22.51,7.77-1,.24-2.39.89-2.66-1-.2-1.51.24-2.55,1.92-2.8,1-.15,2-.42,3-.6,2.41-.44,3.29-1.48,2.75-4.21-2.79-14.06.9-22.72,12.89-30.54a61.2,61.2,0,0,1,8.82-4.81C1126.78,436.46,1134.56,434.32,1141.86,429.59Z" transform="translate(-91.39 -345.86)"/><path class="f" d="M1142.61,427.74a6,6,0,0,1,1.44,2.45l.09.34,0,.19.08.32.14.64.57,2.54c.37,1.71.71,3.42,1,5.16a67.48,67.48,0,0,1,1,10.59,40.55,40.55,0,0,1-1.22,10.76,35.43,35.43,0,0,1-4.31,10,40.67,40.67,0,0,1-7,8.27,31.46,31.46,0,0,1-9.07,6,26.14,26.14,0,0,1-10.67,2.12,31.86,31.86,0,0,1-10.54-2l-3.52-1.27,3.6-1.09a23.94,23.94,0,0,0,3.09-1.1,7.35,7.35,0,0,0,2.39-1.67,26.86,26.86,0,0,0,1.84-2.59,33.9,33.9,0,0,1,2.15-2.86l2.4,3.13a122.06,122.06,0,0,1-13.26,5c-2.25.68-4.51,1.27-6.77,1.81l-3.35.77a7.85,7.85,0,0,1-1,.22,2.74,2.74,0,0,1-1.75-.25,2.66,2.66,0,0,1-1.24-1.49,5.07,5.07,0,0,1-.24-1.23,3.94,3.94,0,0,1,.61-2.66,3.68,3.68,0,0,1,2.44-1.42l.83-.15.81-.17.86-.19.85-.17a3.36,3.36,0,0,0,1.09-.39.61.61,0,0,0,.3-.45A8.72,8.72,0,0,0,1096,474a33.08,33.08,0,0,1,.18-14.41,23.15,23.15,0,0,1,3.06-6.75,29.23,29.23,0,0,1,4.81-5.51,57.07,57.07,0,0,1,11.83-8c4.27-2.18,8.67-3.71,12.9-5.45,2.11-.86,4.19-1.75,6.2-2.74,1-.49,2-1,3-1.55l1.43-.85.28-.16a3.58,3.58,0,0,1,.39-.21,6.5,6.5,0,0,1,.86-.36A7.88,7.88,0,0,1,1142.61,427.74Zm-1.5,3.71a1,1,0,0,0,.24.58.45.45,0,0,0,.13.1l0,0h0l-.1.06-1.57.88c-1,.56-2.11,1.1-3.19,1.6-2.15,1-4.33,1.89-6.5,2.73-4.34,1.66-8.69,3.16-12.67,5.13a53.9,53.9,0,0,0-11.16,7.32,22,22,0,0,0-7,10.6,29.72,29.72,0,0,0-.27,13l.31,1.74a6.33,6.33,0,0,1,0,2.29,4.1,4.1,0,0,1-.57,1.32,3.94,3.94,0,0,1-1,1,6.2,6.2,0,0,1-2.14.81l-.84.17-.83.18-.89.18-.87.16c-.39.06-.51.18-.51.19a1.18,1.18,0,0,0-.08.67c0,.2.06.4.08.46a.55.55,0,0,0-.2-.16c-.21-.09-.22,0-.07-.07a4.62,4.62,0,0,0,.67-.16l3.38-.83c2.21-.57,4.41-1.18,6.57-1.86a52.66,52.66,0,0,0,12.33-5.47l15.47-9.85-13.07,13c-.77.77-1.54,1.52-2.28,2.35a24.37,24.37,0,0,1-2.59,2.62,11.67,11.67,0,0,1-3.44,1.85c-1.15.43-2.28.75-3.41,1.07l.09-2.36a26.39,26.39,0,0,0,9.67,1.65,22.81,22.81,0,0,0,9.33-2.38c5.76-2.92,10.48-8,13.94-13.41a31.24,31.24,0,0,0,3.72-8.91,40.36,40.36,0,0,0,1-9.71,67.32,67.32,0,0,0-.92-10c-.25-1.67-.56-3.33-.88-5l-.52-2.5-.13-.63-.07-.31,0-.12,0,0A.73.73,0,0,0,1141.11,431.45Z" transform="translate(-91.39 -345.86)"/><path class="e" d="M1179.47,412.92a61.52,61.52,0,0,1,15.5,21.5c3.08,6.86,2.53,8.36-5,7.52-11.27-1.25-23.9-9.45-29.94-21.33-4.33-8.52-5.71-18.07-9.09-26.8,4,.1,7.64.3,11.33.26,6.35-.07,12.66.21,18.79,2.06a33.5,33.5,0,0,1,21.34,18.78s0,0,0,0c.07.5.12.88.15,1.16s.06.5.06.5a72.45,72.45,0,0,1-1.43,25.61C1196.16,430.8,1190.07,420.23,1179.47,412.92Z" transform="translate(-91.39 -345.86)"/><path class="f" d="M1179.57,413c.45.35.86.6,1.23.95l1.22,1.15c.8.78,1.59,1.57,2.35,2.39a59.13,59.13,0,0,1,4.33,5.14,70.67,70.67,0,0,1,7.09,11.47c.51,1,1,2,1.48,3.12a11.7,11.7,0,0,1,.62,1.76,4.26,4.26,0,0,1,0,2.38,3.21,3.21,0,0,1-.87,1.28,3.82,3.82,0,0,1-1.16.71,7.61,7.61,0,0,1-2.07.51,22.21,22.21,0,0,1-3.62.09,34.86,34.86,0,0,1-13.65-3.68,42,42,0,0,1-11.43-8.31,40,40,0,0,1-8-11.72,71.46,71.46,0,0,1-4.16-13.09c-1-4.37-1.93-8.67-3.19-12.87h0l-.6-1.79,1.81.07,7.46.26q1.85.06,3.69,0c1.24,0,2.5,0,3.76,0a56.93,56.93,0,0,1,15.08,1.92A35.73,35.73,0,0,1,1194.5,402a33,33,0,0,1,9.08,12.41l-1.19-.79h.11l.16,0h.06l.16,0,.14.07a1.53,1.53,0,0,1,.31.24,1.3,1.3,0,0,1,.36.88,1.25,1.25,0,0,1-.1.51.76.76,0,0,1-.09.18l0,.08a.85.85,0,0,1-.13.15l0,0,.37-1.1c.3,2.31.53,4.62.63,6.95s.06,4.65-.07,7a73.35,73.35,0,0,1-2.1,13.75l-.72,2.82-1.13-2.65a98.4,98.4,0,0,0-8.41-16.25,59.09,59.09,0,0,0-5.64-7.19l-1.6-1.65-1.67-1.56-1.74-1.5C1180.67,414,1180.21,413.51,1179.57,413Zm-.2-.16c.61.4,1.39.78,2.09,1.27l1.85,1.4,1.79,1.5,1.71,1.57a53,53,0,0,1,6.09,7,91.27,91.27,0,0,1,9.17,16.18l-1.85.16a70.3,70.3,0,0,0,1.69-13.4,78.8,78.8,0,0,0-.79-13.46l.36-1.09h0s0,0-.12.14l0,.08a.76.76,0,0,0-.09.18,1.25,1.25,0,0,0-.1.51,1.35,1.35,0,0,0,.36.88,1,1,0,0,0,.31.23l.14.07.16.05.05,0,.16,0h.1l-1.19-.79a31.91,31.91,0,0,0-8.43-11.4,33.66,33.66,0,0,0-12.53-6.77,55.08,55.08,0,0,0-14.41-1.92c-1.23,0-2.46,0-3.7,0s-2.52,0-3.77,0l-7.46-.19,1.21-1.72h0A115.28,115.28,0,0,1,1156.9,406a108,108,0,0,0,4.67,12.14,36.67,36.67,0,0,0,7.23,10.13,43.38,43.38,0,0,0,10,7.53,37.15,37.15,0,0,0,11.75,4.2,29.63,29.63,0,0,0,3,.39,5.33,5.33,0,0,0,1.22,0,1.53,1.53,0,0,0,.45-.1,1.44,1.44,0,0,0,.16-.92,7.23,7.23,0,0,0-.23-1.46,24.8,24.8,0,0,0-1-3.09,63.69,63.69,0,0,0-6.08-11.77,58.71,58.71,0,0,0-4-5.3c-.74-.83-1.49-1.65-2.27-2.44l-1.19-1.17C1180.17,413.74,1179.75,413.24,1179.37,412.84Z" transform="translate(-91.39 -345.86)"/><path class="g" d="M1117.31,399.51c-5.6-4-10.82-3.3-15.74.48-2.4,1.85-4.51,4.06-6.87,6-7,5.65-14.69,7.74-23.47,4.4-2.53-1-1-4.33,1.85-8-3,1.88-7.54,7.4-9.3,9.88-.61.86-1.07,1.95-2.54,1.08s-1-1.89-.22-2.68c3.08-3.14,3.53-6.94,3.89-11.17.88-10.56,9.46-18.35,20.26-18.74,13.09-.49,23.4,4.92,31.12,15.38A10.78,10.78,0,0,1,1117.31,399.51Z" transform="translate(-91.39 -345.86)"/><path class="h" d="M1202.16,413.34c.2,0,.8,2.77,1,4.34" transform="translate(-91.39 -345.86)"/><text class="i" transform="translate(216.08 102.5)">eco<tspan class="j" x="162.06" y="0"> </tspan><tspan class="k" x="178.26" y="0">prints</tspan></text><path class="l" d="M240.56,421.21a72.94,72.94,0,0,1-2,17A70.27,70.27,0,0,1,235,449.12a73.7,73.7,0,0,1-135,2.52,72.66,72.66,0,0,1-5.37-16.93h0a73.39,73.39,0,0,1-.16-26.09c.33-1.9.72-3.77,1.2-5.62a73.43,73.43,0,0,1,3.66-10.71q.9-2.1,1.93-4.11a72.2,72.2,0,0,1,9.52-14.3,67.87,67.87,0,0,1,4.92-5.25c1.29-1.26,2.63-2.46,4-3.62a73.94,73.94,0,0,1,8.47-6.1l.1-.07c.36-.23.73-.45,1.1-.67a69.75,69.75,0,0,1,8.66-4.41,73.8,73.8,0,0,1,78.35,13.08s0,0,.07.07l.06.06a73.81,73.81,0,0,1,11.92,13.93,73.13,73.13,0,0,1,9.07,19.35c.27.92.51,1.77.74,2.61.16.63.28,1.22.41,1.79s.25,1.05.37,1.59c0,.07,0,.14,0,.2.29,1.44.51,2.66.64,3.59a1.07,1.07,0,0,1,0,.21c0,.1,0,.19,0,.28s0,0,0,0c.07.51.12.89.15,1.17s.06.51.06.51A72.3,72.3,0,0,1,240.56,421.21Z" transform="translate(-91.39 -345.86)"/><path class="m" d="M179,423.57a6.35,6.35,0,0,1,1.44,2.48l.09.34.05.2.07.32.15.64.58,2.59c.37,1.73.72,3.48,1,5.24a69.65,69.65,0,0,1,1,10.75,41.37,41.37,0,0,1-1.24,10.93,36,36,0,0,1-4.38,10.19,41.58,41.58,0,0,1-7.06,8.39,32.24,32.24,0,0,1-9.21,6.07,26.59,26.59,0,0,1-10.83,2.16A32.63,32.63,0,0,1,140,481.82l-3.54-1.28,3.63-1.08a30.66,30.66,0,0,0,3.19-1.1,7,7,0,0,0,2.46-1.63,22.18,22.18,0,0,0,1.84-2.62c.66-1,1.35-2,2.09-2.94l2.08,3.22h0a89.72,89.72,0,0,0-13.21,4.32c-2.21.83-4.45,1.63-6.76,2.31-.57.18-1.16.32-1.74.48l-1.7.41a8.46,8.46,0,0,1-1.06.23,2.75,2.75,0,0,1-1.81-.32,2.66,2.66,0,0,1-1.16-1.51,4.91,4.91,0,0,1-.23-1.24,4,4,0,0,1,.67-2.69,3.76,3.76,0,0,1,2.47-1.38c.6-.1,1.06-.2,1.65-.33l.88-.19.85-.17a3.08,3.08,0,0,0,1.09-.4.67.67,0,0,0,.32-.48,3.53,3.53,0,0,0,0-1.2l-.32-1.69a33.47,33.47,0,0,1,.2-14.63,23.7,23.7,0,0,1,3.11-6.85,30.46,30.46,0,0,1,4.89-5.59,58.48,58.48,0,0,1,12-8.07c4.34-2.21,8.8-3.76,13.1-5.53,2.15-.87,4.26-1.77,6.3-2.78,1-.5,2-1,3-1.58l1.46-.86.27-.16.4-.22a6.63,6.63,0,0,1,.87-.36A7.9,7.9,0,0,1,179,423.57Zm-1.5,3.71a.92.92,0,0,0,.23.59.54.54,0,0,0,.12.11l0,0h0l-.1.06-1.59.89c-1.06.57-2.14,1.12-3.24,1.63-2.18,1-4.39,1.92-6.6,2.77-4.41,1.69-8.82,3.22-12.87,5.22A54.85,54.85,0,0,0,142.16,446,22.59,22.59,0,0,0,135,456.77a30.41,30.41,0,0,0-.28,13.24l.31,1.76a6.34,6.34,0,0,1,0,2.3,4,4,0,0,1-.55,1.33,3.61,3.61,0,0,1-1,1,6,6,0,0,1-2.17.85l-.87.17-.84.19c-.56.12-1.24.26-1.8.34-.39.06-.55.19-.56.22a1.11,1.11,0,0,0-.08.66,2.43,2.43,0,0,0,.08.49c0,.1,0,0-.17-.13s-.26,0-.1-.07a3.93,3.93,0,0,0,.65-.15l1.71-.44,1.64-.48c2.17-.68,4.34-1.49,6.5-2.33,4.35-1.7,8.7-3.51,13.23-5.2h0l7.52-2.69-5.44,5.91c-.76.82-1.54,1.63-2.29,2.5a22.84,22.84,0,0,1-2.64,2.72,11.36,11.36,0,0,1-3.56,1.82c-1.17.4-2.32.71-3.46,1l.09-2.37a26.9,26.9,0,0,0,9.84,1.69,23.26,23.26,0,0,0,9.49-2.42c5.86-3,10.66-8.08,14.19-13.64a31.76,31.76,0,0,0,3.78-9.06,41.16,41.16,0,0,0,1.06-9.88,69.51,69.51,0,0,0-.94-10.12c-.26-1.69-.57-3.39-.9-5.08l-.52-2.55-.14-.63-.06-.32,0-.13s0,0,0,0A.75.75,0,0,0,177.54,427.28Z" transform="translate(-91.39 -345.86)"/><path class="m" d="M216.61,408.56c.46.36.87.61,1.25,1l1.24,1.17c.81.79,1.61,1.6,2.38,2.43a60.73,60.73,0,0,1,4.4,5.22,71.93,71.93,0,0,1,7.2,11.67c.52,1,1,2.05,1.5,3.16a11.05,11.05,0,0,1,.62,1.79,4.19,4.19,0,0,1,0,2.41,3.24,3.24,0,0,1-.87,1.29,4.26,4.26,0,0,1-1.17.72,8.3,8.3,0,0,1-2.1.51,21.79,21.79,0,0,1-3.68.08,35.41,35.41,0,0,1-13.86-3.74,43,43,0,0,1-11.6-8.43,40.91,40.91,0,0,1-8.09-11.9,64.65,64.65,0,0,1-4.2-13.3c-1-4.46-1.84-8.85-3-13.2h0l-.44-1.22,1.34-.06c2.54-.1,5.07-.06,7.58,0h7.57A58.45,58.45,0,0,1,218,390a35.87,35.87,0,0,1,13.76,7.36A33.52,33.52,0,0,1,241,410l-1.2-.8h.11l.16,0h.06l.16.05.14.07a1.33,1.33,0,0,1,.68,1.13,1.44,1.44,0,0,1-.1.51l-.09.18-.06.08c-.11.15-.11.13-.13.15v0l.37-1.1c.3,2.34.53,4.69.63,7.06s.06,4.73-.07,7.09a73.27,73.27,0,0,1-2.14,14l-.71,2.82-1.13-2.66a99.94,99.94,0,0,0-8.55-16.5,60.33,60.33,0,0,0-5.74-7.31l-1.62-1.67-1.7-1.59L218.29,410C217.73,409.61,217.26,409.08,216.61,408.56Zm-.2-.15c.61.4,1.41.79,2.11,1.29l1.89,1.42,1.81,1.52,1.74,1.61a53.37,53.37,0,0,1,6.19,7.15,92.56,92.56,0,0,1,9.31,16.44l-1.85.16a71.8,71.8,0,0,0,1.72-13.62,78.31,78.31,0,0,0-.81-13.68l.37-1.1h0a.73.73,0,0,0-.12.14l-.06.09a1.5,1.5,0,0,0-.09.18,1.22,1.22,0,0,0-.1.51,1.3,1.3,0,0,0,.37.88,1.5,1.5,0,0,0,.3.24l.15.07.15,0h.06l.16,0h.1l-1.19-.8a32.16,32.16,0,0,0-8.6-11.57,34.46,34.46,0,0,0-12.72-6.88,55.54,55.54,0,0,0-14.65-2c-1.25,0-2.5,0-3.76,0s-2.55,0-3.82-.07c-2.55-.09-5.07-.27-7.58-.5l.9-1.27h0a99,99,0,0,1,5.13,12.75c1.53,4.25,2.92,8.44,4.78,12.33a36.82,36.82,0,0,0,7.35,10.31,44,44,0,0,0,10.17,7.66,37.81,37.81,0,0,0,12,4.27,30.71,30.71,0,0,0,3.11.39,6.27,6.27,0,0,0,1.25,0c.33-.07.36-.06.46-.12a1.56,1.56,0,0,0,.16-.95,7.73,7.73,0,0,0-.23-1.49,26.21,26.21,0,0,0-1-3.14,64.78,64.78,0,0,0-6.19-12,59.31,59.31,0,0,0-4.1-5.39c-.74-.84-1.51-1.67-2.3-2.48l-1.21-1.19C217.22,409.32,216.79,408.81,216.41,408.41Z" transform="translate(-91.39 -345.86)"/><path class="l" d="M153.34,394.86c-5.69-4-11-3.35-16,.49-2.44,1.87-4.59,4.12-7,6-7.13,5.74-14.92,7.87-23.85,4.47-2.57-1-1-4.4,1.88-8.1-3,1.9-7.67,7.51-9.45,10-.62.88-1.09,2-2.58,1.1s-1-1.92-.23-2.72c3.14-3.19,3.59-7.05,4-11.35.9-10.74,9.62-18.65,20.59-19.05,13.31-.49,23.79,5,31.63,15.63A11,11,0,0,1,153.34,394.86Z" transform="translate(-91.39 -345.86)"/><path class="n" d="M239.56,408.91c.21,0,.81,2.82,1,4.41" transform="translate(-91.39 -345.86)"/><text class="o" transform="translate(2276.43 104.74)">eco<tspan class="p" x="150.18" y="0"> </tspan><tspan class="k" x="165.2" y="0">prints</tspan></text><path class="q" d="M2305.82,425.44a67.2,67.2,0,0,1-1.86,15.77,64.28,64.28,0,0,1-3.27,10.09,68.29,68.29,0,0,1-125.13,2.34,67.22,67.22,0,0,1-5-15.69h0a67.82,67.82,0,0,1-1.16-12.5,67.12,67.12,0,0,1,1-11.68c.3-1.75.67-3.49,1.11-5.2a67.9,67.9,0,0,1,3.39-9.93c.56-1.29,1.15-2.56,1.79-3.81a66.91,66.91,0,0,1,8.83-13.25,63.47,63.47,0,0,1,4.55-4.87q1.8-1.74,3.72-3.35a68.58,68.58,0,0,1,7.85-5.66.18.18,0,0,0,.09-.06l1-.62a63.58,63.58,0,0,1,8-4.08A68.35,68.35,0,0,1,2283.42,375s0,0,.07.07l.05.06a67.8,67.8,0,0,1,11.05,12.91,66.47,66.47,0,0,1,3.5,5.91,65.73,65.73,0,0,1,4.9,12c.26.85.48,1.64.69,2.42.15.58.26,1.13.39,1.65s.22,1,.33,1.47c0,.07,0,.14,0,.19.28,1.34.47,2.47.6,3.33,0,.08,0,.15,0,.19s0,.18,0,.27h0c.07.47.11.83.14,1.09s.06.47.06.47A67.47,67.47,0,0,1,2305.82,425.44Z" transform="translate(-91.39 -345.86)"/><path class="f" d="M2248.86,427.5a6,6,0,0,1,1.42,2.37l.08.34,0,.18.07.3.14.6.53,2.4c.35,1.6.67,3.22.95,4.85a63.68,63.68,0,0,1,1,10,38.64,38.64,0,0,1-1.15,10.17,33.34,33.34,0,0,1-4.09,9.47,38,38,0,0,1-6.57,7.81,29.94,29.94,0,0,1-8.58,5.63,24.85,24.85,0,0,1-10.08,2,30.47,30.47,0,0,1-10-1.91l-3.54-1.29,3.63-1.08a26.94,26.94,0,0,0,3-1,6.2,6.2,0,0,0,2.24-1.5,22.82,22.82,0,0,0,1.68-2.43c.6-.91,1.23-1.85,1.92-2.74l2.08,3.22h0a80.46,80.46,0,0,0-12.24,4c-2,.76-4.13,1.51-6.27,2.14-.54.16-1.08.3-1.62.44l-1.58.38a7.62,7.62,0,0,1-1,.22,2.76,2.76,0,0,1-1.75-.31,2.65,2.65,0,0,1-1.13-1.47,4.76,4.76,0,0,1-.21-1.17,3.76,3.76,0,0,1,.64-2.57,3.6,3.6,0,0,1,2.36-1.32c.56-.09,1-.18,1.52-.3l.82-.18.79-.16a2.76,2.76,0,0,0,1-.35.52.52,0,0,0,.25-.38,3.29,3.29,0,0,0,0-1.07l-.3-1.57a31.13,31.13,0,0,1,.18-13.61,22.26,22.26,0,0,1,2.9-6.37,27.41,27.41,0,0,1,4.55-5.21,53.94,53.94,0,0,1,11.15-7.5c4-2.06,8.17-3.5,12.15-5.14,2-.81,3.94-1.65,5.83-2.58.94-.46,1.87-.95,2.78-1.46l1.34-.79.27-.16.38-.21a6.15,6.15,0,0,1,.84-.34A6.79,6.79,0,0,1,2248.86,427.5Zm-1.51,3.7a.91.91,0,0,0,.29.56.42.42,0,0,0,.15.09h0l-.09.05-1.48.83c-1,.53-2,1-3,1.51-2,.95-4.08,1.78-6.13,2.57-4.09,1.56-8.18,3-11.92,4.82a51.26,51.26,0,0,0-10.49,6.86,20.73,20.73,0,0,0-6.59,9.93,27.91,27.91,0,0,0-.27,12.22l.29,1.63a6.08,6.08,0,0,1,0,2.17,4,4,0,0,1-.53,1.27,3.59,3.59,0,0,1-1,1,5.62,5.62,0,0,1-2,.8l-.81.16-.78.17c-.51.12-1.15.25-1.67.32a.89.89,0,0,0-.45.16.92.92,0,0,0-.05.54,2.15,2.15,0,0,0,.06.43c0,.08,0-.05-.2-.18s-.3-.06-.16-.08a5.47,5.47,0,0,0,.59-.14l1.58-.41c.51-.15,1-.28,1.51-.45,2-.62,4-1.37,6-2.16,4-1.57,8.06-3.25,12.26-4.85h0l7.63-2.76-5.55,6c-.71.76-1.43,1.5-2.13,2.31a22.19,22.19,0,0,1-2.47,2.52,10.78,10.78,0,0,1-3.34,1.7c-1.1.36-2.16.65-3.22,1l.09-2.36a24.73,24.73,0,0,0,9.08,1.55,21.38,21.38,0,0,0,8.75-2.26c5.39-2.74,9.82-7.47,13.07-12.6a29,29,0,0,0,3.48-8.36,37.42,37.42,0,0,0,1-9.11,64.63,64.63,0,0,0-.86-9.36c-.24-1.57-.53-3.14-.83-4.71l-.49-2.35-.12-.59-.06-.3a1.1,1.1,0,0,0,0-.11l0,0A.72.72,0,0,0,2247.35,431.2Z" transform="translate(-91.39 -345.86)"/><path class="f" d="M2283.62,413.72a13,13,0,0,1,1.16.89l1.15,1.08c.76.73,1.5,1.49,2.22,2.26a57.32,57.32,0,0,1,4.09,4.83,67.62,67.62,0,0,1,6.7,10.8c.48.95,1,1.9,1.41,2.93a11.64,11.64,0,0,1,.59,1.67,4,4,0,0,1,0,2.28,3.09,3.09,0,0,1-.83,1.25,4,4,0,0,1-1.12.69,8.2,8.2,0,0,1-2,.49,20,20,0,0,1-3.43.09,31.81,31.81,0,0,1-6.64-1.06,35.69,35.69,0,0,1-6.27-2.39,38.84,38.84,0,0,1-5.73-3.47c-.92-.64-1.77-1.37-2.64-2.07s-1.66-1.49-2.43-2.31a39.42,39.42,0,0,1-4.26-5.2,40.91,40.91,0,0,1-3.28-5.88,59.28,59.28,0,0,1-3.87-12.36c-.9-4.14-1.66-8.21-2.67-12.24h0l-.37-1.21,1.26-.06c2.36-.11,4.7-.08,7-.05l7,0a54.78,54.78,0,0,1,14.24,1.79,33.51,33.51,0,0,1,12.8,6.84,31.29,31.29,0,0,1,8.56,11.74l-1.2-.79h.11l.16,0h.06l.16.05.14.07.31.23a1.33,1.33,0,0,1,.37.89,1.64,1.64,0,0,1-.1.51.77.77,0,0,1-.1.18l0,.09a.85.85,0,0,1-.13.15h0l.37-1.1c.27,2.18.49,4.36.58,6.55s.05,4.39-.07,6.58a68.26,68.26,0,0,1-2,13l-.71,2.82-1.13-2.65a91.85,91.85,0,0,0-7.9-15.3,55.93,55.93,0,0,0-5.3-6.78l-1.5-1.55-1.57-1.48-1.63-1.41C2284.65,414.71,2284.23,414.21,2283.62,413.72Zm-.19-.15c.56.37,1.31.72,2,1.19l1.75,1.32,1.68,1.4,1.62,1.49a49,49,0,0,1,5.75,6.62,85.88,85.88,0,0,1,8.66,15.23L2303,441a66.32,66.32,0,0,0,1.58-12.61,73.59,73.59,0,0,0-.76-12.67l.37-1.09h0a.85.85,0,0,0-.13.15l0,.08-.09.18a1.25,1.25,0,0,0-.1.51,1.33,1.33,0,0,0,.37.89l.3.23.15.07.15,0h.06l.16,0h.1l-1.2-.79a29.76,29.76,0,0,0-7.93-10.69,32.2,32.2,0,0,0-11.76-6.36,51.43,51.43,0,0,0-13.55-1.82c-1.15,0-2.31,0-3.48,0s-2.37,0-3.55-.06c-2.36-.08-4.69-.26-7-.48l.89-1.27h0a90.31,90.31,0,0,1,4.83,11.8c1.44,3.93,2.74,7.81,4.45,11.39a36.81,36.81,0,0,0,3,5.05,40.31,40.31,0,0,0,3.81,4.45,41.05,41.05,0,0,0,9.38,7.07,35.56,35.56,0,0,0,11,4c1,.16,2,.32,2.86.38a6.9,6.9,0,0,0,1.12,0,1.42,1.42,0,0,1,.37,0,1.25,1.25,0,0,0,.16-.83,7.81,7.81,0,0,0-.2-1.37,24.05,24.05,0,0,0-.95-2.91,60.22,60.22,0,0,0-5.7-11.09,55.4,55.4,0,0,0-3.78-5c-.7-.79-1.41-1.56-2.14-2.31l-1.12-1.1A14.82,14.82,0,0,1,2283.43,413.57Z" transform="translate(-91.39 -345.86)"/><path class="q" d="M2225,401c-5.27-3.75-10.19-3.11-14.82.45-2.26,1.74-4.25,3.83-6.47,5.62-6.6,5.32-13.83,7.28-22.1,4.14-2.38-.91-1-4.08,1.74-7.51-2.82,1.76-7.1,7-8.75,9.3-.58.81-1,1.84-2.4,1s-.93-1.78-.21-2.51c2.91-3,3.33-6.54,3.66-10.53.83-9.95,8.91-17.28,19.08-17.65,12.33-.46,22.05,4.63,29.32,14.48A10.31,10.31,0,0,1,2225,401Z" transform="translate(-91.39 -345.86)"/><path class="r" d="M2304.89,414c.19,0,.75,2.61.93,4.09" transform="translate(-91.39 -345.86)"/></svg>